# xmcd
#
# Track frame offsets:
#	150
#	16027
#	29494
#	43705
#	59795
#	73809
#	90629
#	113651
#	129441
#	143146
#	158039
#	169269
#	187356
#
# Disc length: 2547 seconds
#
# Revision: 1
# Processed by: cddbd v1.5.2PL0 Copyright (c) Steve Scherf et al.
# Submitted via: audiograbber 1.83.01
#
DISCID=ba09f10d
DTITLE=Tim Lothar Pedersen - In It for the ride
DYEAR=2008
DGENRE=Blues
TTITLE0=Someday baby blues
TTITLE1=Shake It and break it
TTITLE2=In it for the ride
TTITLE3=Mississippi Aberdeen
TTITLE4=Honeybee
TTITLE5=I will be home again
TTITLE6=Finally over again
TTITLE7=Bad luck
TTITLE8=Careless love
TTITLE9=Over there
TTITLE10=Da boogie
TTITLE11=Stones in my passway
TTITLE12=I'll be home again - vocal
EXTD=Based on previous freedb entry. Corrected track 13 and some typos 
EXTT0=
EXTT1=
EXTT2=
EXTT3=
EXTT4=
EXTT5=
EXTT6=
EXTT7=
EXTT8=
EXTT9=
EXTT10=
EXTT11=
EXTT12=
PLAYORDER=
